# Blender v2.79 (sub 0) OBJ File: 'cars.blend'
# www.blender.org
mtllib car5.mtl
o Cube.002
v -1.000000 0.875000 0.750000
v -1.000000 1.375000 0.750000
v -1.000000 0.875000 -0.750000
v -1.000000 1.375000 -0.750000
v 1.000000 0.875000 0.750000
v 1.000000 1.375000 0.750000
v 1.000000 0.875000 -0.750000
v 1.000000 1.375000 -0.750000
v -0.500000 1.375000 0.750000
v -0.500000 2.000000 0.750000
v -0.500000 1.375000 -0.750000
v -0.500000 2.000000 -0.750000
v 0.500000 1.375000 0.750000
v 0.500000 2.000000 0.750000
v 0.500000 1.375000 -0.750000
v 0.500000 2.000000 -0.750000
v 1.500000 0.500000 -1.000000
v 1.500000 0.500000 -0.375000
v 1.433013 0.250000 -1.000000
v 1.433013 0.250000 -0.375000
v 1.250000 0.066987 -1.000000
v 1.250000 0.066987 -0.375000
v 1.000000 -0.000000 -1.000000
v 1.000000 -0.000000 -0.375000
v 0.750000 0.066987 -1.000000
v 0.750000 0.066987 -0.375000
v 0.566987 0.250000 -1.000000
v 0.566987 0.250000 -0.375000
v 0.500000 0.500000 -1.000000
v 0.500000 0.500000 -0.375000
v 0.566987 0.750000 -1.000000
v 0.566987 0.750000 -0.375000
v 0.750000 0.933012 -1.000000
v 0.750000 0.933012 -0.375000
v 1.000000 1.000000 -1.000000
v 1.000000 1.000000 -0.375000
v 1.250000 0.933013 -1.000000
v 1.250000 0.933013 -0.375000
v 1.433012 0.750000 -1.000000
v 1.433012 0.750000 -0.375000
v -0.500000 0.500000 -1.000000
v -0.500000 0.500000 -0.375000
v -0.566987 0.250000 -1.000000
v -0.566987 0.250000 -0.375000
v -0.750000 0.066987 -1.000000
v -0.750000 0.066987 -0.375000
v -1.000000 -0.000000 -1.000000
v -1.000000 -0.000000 -0.375000
v -1.250000 0.066987 -1.000000
v -1.250000 0.066987 -0.375000
v -1.433012 0.250000 -1.000000
v -1.433012 0.250000 -0.375000
v -1.500000 0.500000 -1.000000
v -1.500000 0.500000 -0.375000
v -1.433013 0.750000 -1.000000
v -1.433012 0.750000 -0.375000
v -1.250000 0.933012 -1.000000
v -1.250000 0.933012 -0.375000
v -1.000000 1.000000 -1.000000
v -1.000000 1.000000 -0.375000
v -0.750000 0.933013 -1.000000
v -0.750000 0.933013 -0.375000
v -0.566987 0.750000 -1.000000
v -0.566987 0.750000 -0.375000
v -0.500000 0.500000 0.375000
v -0.500000 0.500000 1.000000
v -0.566987 0.250000 0.375000
v -0.566987 0.250000 1.000000
v -0.750000 0.066987 0.375000
v -0.750000 0.066987 1.000000
v -1.000000 -0.000000 0.375000
v -1.000000 -0.000000 1.000000
v -1.250000 0.066987 0.375000
v -1.250000 0.066987 1.000000
v -1.433013 0.250000 0.375000
v -1.433012 0.250000 1.000000
v -1.500000 0.500000 0.375000
v -1.500000 0.500000 1.000000
v -1.433013 0.750000 0.375000
v -1.433012 0.750000 1.000000
v -1.250000 0.933012 0.375000
v -1.250000 0.933012 1.000000
v -1.000000 1.000000 0.375000
v -1.000000 1.000000 1.000000
v -0.750000 0.933013 0.375000
v -0.750000 0.933013 1.000000
v -0.566987 0.750000 0.375000
v -0.566987 0.750000 1.000000
v 1.500000 0.500000 0.375000
v 1.500000 0.500000 1.000000
v 1.433013 0.250000 0.375000
v 1.433013 0.250000 1.000000
v 1.250000 0.066987 0.375000
v 1.250000 0.066987 1.000000
v 1.000000 -0.000000 0.375000
v 1.000000 -0.000000 1.000000
v 0.750000 0.066987 0.375000
v 0.750000 0.066987 1.000000
v 0.566987 0.250000 0.375000
v 0.566988 0.250000 1.000000
v 0.500000 0.500000 0.375000
v 0.500000 0.500000 1.000000
v 0.566987 0.750000 0.375000
v 0.566987 0.750000 1.000000
v 0.750000 0.933012 0.375000
v 0.750000 0.933012 1.000000
v 1.000000 1.000000 0.375000
v 1.000000 1.000000 1.000000
v 1.250000 0.933013 0.375000
v 1.250000 0.933013 1.000000
v 1.433013 0.750000 0.375000
v 1.433013 0.750000 1.000000
v 0.625000 -2.000000 0.750000
v -1.000000 0.875000 0.750000
v -1.000000 1.375000 0.750000
v -1.000000 1.375000 0.750000
v -1.000000 1.375000 -0.750000
v -1.000000 1.375000 -0.750000
v -1.000000 0.875000 -0.750000
v 1.000000 1.375000 -0.750000
v 1.000000 1.375000 -0.750000
v 1.000000 0.875000 -0.750000
v 1.000000 1.375000 0.750000
v 1.000000 1.375000 0.750000
v 1.000000 0.875000 0.750000
v -0.500000 1.375000 0.750000
v -0.500000 2.000000 0.750000
v -0.500000 2.000000 0.750000
v -0.500000 2.000000 -0.750000
v -0.500000 2.000000 -0.750000
v -0.500000 1.375000 -0.750000
v 0.500000 2.000000 -0.750000
v 0.500000 2.000000 -0.750000
v 0.500000 1.375000 -0.750000
v 0.500000 2.000000 0.750000
v 0.500000 2.000000 0.750000
v 0.500000 1.375000 0.750000
v 1.500000 0.500000 -1.000000
v 1.433013 0.250000 -1.000000
v 1.433013 0.250000 -0.375000
v 1.500000 0.500000 -0.375000
v 1.250000 0.066987 -1.000000
v 1.250000 0.066987 -0.375000
v 1.000000 -0.000000 -1.000000
v 1.000000 -0.000000 -0.375000
v 0.750000 0.066987 -1.000000
v 0.750000 0.066987 -0.375000
v 0.566987 0.250000 -1.000000
v 0.566987 0.250000 -0.375000
v 0.500000 0.500000 -1.000000
v 0.500000 0.500000 -0.375000
v 0.566987 0.750000 -1.000000
v 0.566987 0.750000 -0.375000
v 0.750000 0.933012 -1.000000
v 0.750000 0.933012 -0.375000
v 1.000000 1.000000 -1.000000
v 1.000000 1.000000 -0.375000
v 1.250000 0.933013 -1.000000
v 1.250000 0.933013 -0.375000
v 1.433012 0.750000 -1.000000
v 1.433012 0.750000 -0.375000
v -0.500000 0.500000 -1.000000
v -0.566987 0.250000 -1.000000
v -0.566987 0.250000 -0.375000
v -0.500000 0.500000 -0.375000
v -0.750000 0.066987 -1.000000
v -0.750000 0.066987 -0.375000
v -1.000000 -0.000000 -1.000000
v -1.000000 -0.000000 -0.375000
v -1.250000 0.066987 -1.000000
v -1.250000 0.066987 -0.375000
v -1.433012 0.250000 -1.000000
v -1.433012 0.250000 -0.375000
v -1.500000 0.500000 -1.000000
v -1.500000 0.500000 -0.375000
v -1.433013 0.750000 -1.000000
v -1.433012 0.750000 -0.375000
v -1.250000 0.933012 -1.000000
v -1.250000 0.933012 -0.375000
v -1.000000 1.000000 -1.000000
v -1.000000 1.000000 -0.375000
v -0.750000 0.933013 -1.000000
v -0.750000 0.933013 -0.375000
v -0.566987 0.750000 -1.000000
v -0.566987 0.750000 -0.375000
v -0.500000 0.500000 0.375000
v -0.566987 0.250000 0.375000
v -0.566987 0.250000 1.000000
v -0.500000 0.500000 1.000000
v -0.750000 0.066987 0.375000
v -0.750000 0.066987 1.000000
v -1.000000 -0.000000 0.375000
v -1.000000 -0.000000 1.000000
v -1.250000 0.066987 0.375000
v -1.250000 0.066987 1.000000
v -1.433013 0.250000 0.375000
v -1.433012 0.250000 1.000000
v -1.500000 0.500000 0.375000
v -1.500000 0.500000 1.000000
v -1.433013 0.750000 0.375000
v -1.433012 0.750000 1.000000
v -1.250000 0.933012 0.375000
v -1.250000 0.933012 1.000000
v -1.000000 1.000000 0.375000
v -1.000000 1.000000 1.000000
v -0.750000 0.933013 0.375000
v -0.750000 0.933013 1.000000
v -0.566987 0.750000 0.375000
v -0.566987 0.750000 1.000000
v 1.500000 0.500000 0.375000
v 1.433013 0.250000 0.375000
v 1.433013 0.250000 1.000000
v 1.500000 0.500000 1.000000
v 1.250000 0.066987 0.375000
v 1.250000 0.066987 1.000000
v 1.000000 -0.000000 0.375000
v 1.000000 -0.000000 1.000000
v 0.750000 0.066987 0.375000
v 0.750000 0.066987 1.000000
v 0.566987 0.250000 0.375000
v 0.566988 0.250000 1.000000
v 0.500000 0.500000 0.375000
v 0.500000 0.500000 1.000000
v 0.566987 0.750000 0.375000
v 0.566987 0.750000 1.000000
v 0.750000 0.933012 0.375000
v 0.750000 0.933012 1.000000
v 1.000000 1.000000 0.375000
v 1.000000 1.000000 1.000000
v 1.250000 0.933013 0.375000
v 1.250000 0.933013 1.000000
v 1.433013 0.750000 0.375000
v 1.433013 0.750000 1.000000
vt 0.710239 0.687500
vt 0.957266 0.437500
vt 0.710239 0.437500
vt 0.083333 0.687500
vt 0.416667 0.437500
vt 0.083333 0.437500
vt 0.957266 0.687500
vt 0.710239 0.437500
vt 0.957266 0.437500
vt 0.416667 0.687500
vt 0.083333 0.437500
vt 0.416667 0.437500
vt 0.957266 0.687500
vt 0.710239 0.687500
vt 0.957266 0.687500
vt 0.710239 1.000000
vt 0.957266 0.687500
vt 0.710239 0.687500
vt 0.166667 1.000000
vt 0.333333 0.687500
vt 0.166667 0.687500
vt 0.957266 1.000000
vt 0.710239 0.687500
vt 0.957266 0.687500
vt 0.333333 1.000000
vt 0.166667 0.687500
vt 0.333333 0.687500
vt 0.874514 0.609329
vt 0.800202 0.683640
vt 0.800202 0.609329
vt 0.998437 0.250000
vt 0.895509 0.125000
vt 0.998437 0.125000
vt 0.895509 0.033494
vt 0.998437 0.033494
vt 0.895509 0.000000
vt 0.998437 0.000000
vt 0.895509 0.033494
vt 0.998437 0.033494
vt 0.998437 0.125000
vt 0.895509 0.125000
vt 0.998437 0.250000
vt 0.895509 0.250000
vt 0.998437 0.375000
vt 0.895509 0.466506
vt 0.998437 0.466506
vt 0.998437 0.500000
vt 0.895509 0.500000
vt 0.998437 0.466506
vt 0.375000 0.033494
vt 0.458333 0.033494
vt 0.458333 0.466506
vt 0.895509 0.466506
vt 0.998437 0.375000
vt 0.895509 0.375000
vt 0.416667 0.500000
vt 0.488836 0.375000
vt 0.416667 0.000000
vt 0.998437 0.250000
vt 0.895509 0.125000
vt 0.998437 0.125000
vt 0.998437 0.033494
vt 0.895509 0.033494
vt 0.998437 0.000000
vt 0.895509 0.000000
vt 0.998437 0.033494
vt 0.895509 0.033494
vt 0.998437 0.125000
vt 0.895509 0.125000
vt 0.998437 0.250000
vt 0.895509 0.250000
vt 0.998437 0.375000
vt 0.895509 0.375000
vt 0.998437 0.466506
vt 0.895509 0.466506
vt 0.998437 0.500000
vt 0.895509 0.500000
vt 0.998437 0.466506
vt 0.125000 0.466506
vt 0.000000 0.250000
vt 0.125000 0.033494
vt 0.895509 0.466506
vt 0.998437 0.375000
vt 0.895509 0.375000
vt 0.083333 0.000000
vt 0.011165 0.125000
vt 0.011165 0.375000
vt 0.669068 0.250000
vt 0.771996 0.125000
vt 0.771996 0.250000
vt 0.669068 0.125000
vt 0.771996 0.033494
vt 0.669068 0.000000
vt 0.771996 0.000000
vt 0.669068 0.033494
vt 0.771996 0.033494
vt 0.771996 0.125000
vt 0.669068 0.250000
vt 0.771996 0.250000
vt 0.771996 0.375000
vt 0.669068 0.466506
vt 0.771996 0.466506
vt 0.771996 0.500000
vt 0.669068 0.500000
vt 0.771996 0.466506
vt 0.125000 0.466506
vt 0.000000 0.250000
vt 0.125000 0.033494
vt 0.669068 0.466506
vt 0.771996 0.375000
vt 0.669068 0.375000
vt 0.083333 0.000000
vt 0.011165 0.375000
vt 0.155502 0.375000
vt 0.771996 0.250000
vt 0.669068 0.125000
vt 0.771996 0.125000
vt 0.771996 0.033494
vt 0.669068 0.033494
vt 0.771996 0.000000
vt 0.669068 0.033494
vt 0.771996 0.033494
vt 0.771996 0.125000
vt 0.669068 0.125000
vt 0.771996 0.250000
vt 0.669068 0.250000
vt 0.771996 0.375000
vt 0.669068 0.466506
vt 0.771996 0.466506
vt 0.771996 0.500000
vt 0.669068 0.466506
vt 0.771996 0.466506
vt 0.375000 0.033494
vt 0.458333 0.033494
vt 0.458333 0.466506
vt 0.771996 0.375000
vt 0.669068 0.375000
vt 0.416667 0.000000
vt 0.344498 0.375000
vt 0.488836 0.375000
vt 0.957266 0.687500
vt 0.416667 0.687500
vt 0.710239 0.687500
vt 0.083333 0.687500
vt 0.710239 0.687500
vt 0.957266 1.000000
vt 0.333333 1.000000
vt 0.710239 1.000000
vt 0.166667 1.000000
vt 0.874514 0.683640
vt 0.895509 0.250000
vt 0.895509 0.375000
vt 0.488836 0.125000
vt 0.500000 0.250000
vt 0.488836 0.375000
vt 0.416667 0.500000
vt 0.333333 0.250000
vt 0.375000 0.466506
vt 0.344498 0.375000
vt 0.344498 0.125000
vt 0.416667 0.000000
vt 0.500000 0.250000
vt 0.488836 0.125000
vt 0.458333 0.033493
vt 0.375000 0.033493
vt 0.344498 0.125000
vt 0.333333 0.250000
vt 0.344498 0.375000
vt 0.375000 0.466506
vt 0.458333 0.466506
vt 0.895509 0.250000
vt 0.155502 0.125000
vt 0.166667 0.250000
vt 0.155502 0.375000
vt 0.083333 0.500000
vt 0.041667 0.466506
vt 0.011165 0.375000
vt 0.011165 0.125000
vt 0.041667 0.033494
vt 0.083333 0.000000
vt 0.155502 0.375000
vt 0.166667 0.250000
vt 0.155502 0.125000
vt 0.125000 0.033493
vt 0.041667 0.033493
vt 0.000000 0.250000
vt 0.041667 0.466506
vt 0.083333 0.500000
vt 0.125000 0.466506
vt 0.669068 0.033494
vt 0.669068 0.125000
vt 0.669068 0.375000
vt 0.155502 0.125000
vt 0.166667 0.250000
vt 0.155502 0.375000
vt 0.083333 0.500000
vt 0.041667 0.466506
vt 0.011165 0.375000
vt 0.011165 0.125000
vt 0.041667 0.033494
vt 0.083333 0.000000
vt 0.166667 0.250000
vt 0.155502 0.125000
vt 0.125000 0.033494
vt 0.041667 0.033494
vt 0.011165 0.125000
vt 0.000000 0.250000
vt 0.041667 0.466506
vt 0.083333 0.500000
vt 0.125000 0.466506
vt 0.669068 0.250000
vt 0.669068 0.000000
vt 0.669068 0.375000
vt 0.669068 0.500000
vt 0.488836 0.125000
vt 0.500000 0.250000
vt 0.488836 0.375000
vt 0.416667 0.500000
vt 0.333333 0.250000
vt 0.375000 0.466506
vt 0.344498 0.375000
vt 0.344498 0.125000
vt 0.416667 0.000000
vt 0.500000 0.250000
vt 0.488836 0.125000
vt 0.458333 0.033494
vt 0.375000 0.033494
vt 0.344498 0.125000
vt 0.333333 0.250000
vt 0.375000 0.466506
vt 0.416667 0.500000
vt 0.458333 0.466506
vn -1.0000 0.0000 0.0000
vn 0.0000 0.0000 -1.0000
vn 1.0000 0.0000 0.0000
vn 0.0000 0.0000 1.0000
vn 0.0000 1.0000 0.0000
vn 0.8660 -0.5000 0.0000
vn 0.5000 -0.8660 0.0000
vn 0.0000 -1.0000 0.0000
vn -0.5000 -0.8660 0.0000
vn -0.8660 -0.5000 0.0000
vn -0.8660 0.5000 0.0000
vn -0.5000 0.8660 0.0000
vn 0.5000 0.8660 0.0000
vn 0.8660 0.5000 0.0000
usemtl None
s 1
f 115/1/1 119/2/1 114/3/1
f 118/4/2 122/5/2 3/6/2
f 121/7/3 125/8/3 7/9/3
f 124/10/4 1/11/4 5/12/4
f 4/13/5 6/14/5 8/15/5
f 127/16/1 131/17/1 126/18/1
f 130/19/2 134/20/2 11/21/2
f 133/22/3 137/23/3 15/24/3
f 136/25/4 9/26/4 13/27/4
f 12/28/5 14/29/5 16/30/5
f 138/31/3 140/32/6 139/33/6
f 139/33/6 143/34/7 142/35/7
f 142/35/7 145/36/8 144/37/8
f 144/37/8 147/38/9 146/39/9
f 147/38/9 148/40/10 146/39/9
f 149/41/10 150/42/1 148/40/10
f 151/43/1 152/44/11 150/42/1
f 152/44/11 155/45/12 154/46/12
f 155/45/12 156/47/5 154/46/12
f 157/48/5 158/49/13 156/47/5
f 26/50/4 22/51/4 38/52/4
f 159/53/13 160/54/14 158/49/13
f 40/55/14 138/31/3 160/54/14
f 35/56/2 39/57/2 23/58/2
f 162/59/3 164/60/6 163/61/6
f 164/60/6 166/62/7 163/61/6
f 167/63/7 168/64/8 166/62/7
f 169/65/8 170/66/9 168/64/8
f 171/67/9 172/68/10 170/66/9
f 173/69/10 174/70/1 172/68/10
f 175/71/1 176/72/11 174/70/1
f 177/73/11 178/74/12 176/72/11
f 179/75/12 180/76/5 178/74/12
f 181/77/5 182/78/13 180/76/5
f 62/79/4 54/80/4 46/81/4
f 183/82/13 184/83/14 182/78/13
f 64/84/14 162/59/3 184/83/14
f 47/85/2 51/86/2 55/87/2
f 189/88/3 187/89/6 186/90/3
f 188/91/6 190/92/7 187/89/6
f 190/92/7 193/93/8 192/94/8
f 192/94/8 195/95/9 194/96/9
f 195/95/9 196/97/10 194/96/9
f 196/97/10 199/98/1 198/99/1
f 199/98/1 200/100/11 198/99/1
f 200/100/11 203/101/12 202/102/12
f 203/101/12 204/103/5 202/102/12
f 205/104/5 206/105/13 204/103/5
f 86/106/4 78/107/4 70/108/4
f 207/109/13 208/110/14 206/105/13
f 88/111/14 186/90/3 208/110/14
f 71/112/2 79/113/2 87/114/2
f 210/115/3 212/116/6 211/117/6
f 212/116/6 214/118/7 211/117/6
f 215/119/7 216/120/8 214/118/7
f 216/120/8 219/121/9 218/122/9
f 219/121/9 220/123/10 218/122/9
f 221/124/10 222/125/1 220/123/10
f 223/126/1 224/127/11 222/125/1
f 224/127/11 227/128/12 226/129/12
f 227/128/12 228/130/5 226/129/12
f 228/130/5 231/131/13 230/132/13
f 98/133/4 94/134/4 110/135/4
f 231/131/13 232/136/14 230/132/13
f 112/137/14 210/115/3 232/136/14
f 95/138/2 103/139/2 111/140/2
f 115/1/1 117/141/1 119/2/1
f 118/4/2 120/142/2 122/5/2
f 121/7/3 123/143/3 125/8/3
f 124/10/4 116/144/4 1/11/4
f 4/13/5 2/145/5 6/14/5
f 127/16/1 129/146/1 131/17/1
f 130/19/2 132/147/2 134/20/2
f 133/22/3 135/148/3 137/23/3
f 136/25/4 128/149/4 9/26/4
f 12/28/5 10/150/5 14/29/5
f 138/31/3 141/151/3 140/32/6
f 139/33/6 140/32/6 143/34/7
f 142/35/7 143/34/7 145/36/8
f 144/37/8 145/36/8 147/38/9
f 147/38/9 149/41/10 148/40/10
f 149/41/10 151/43/1 150/42/1
f 151/43/1 153/152/11 152/44/11
f 152/44/11 153/152/11 155/45/12
f 155/45/12 157/48/5 156/47/5
f 157/48/5 159/53/13 158/49/13
f 22/51/4 20/153/4 18/154/4
f 18/154/4 161/155/4 38/52/4
f 38/52/4 36/156/4 30/157/4
f 36/156/4 34/158/4 30/157/4
f 34/158/4 32/159/4 30/157/4
f 30/157/4 28/160/4 26/50/4
f 26/50/4 24/161/4 22/51/4
f 22/51/4 18/154/4 38/52/4
f 30/157/4 26/50/4 38/52/4
f 159/53/13 40/55/14 160/54/14
f 40/55/14 141/151/3 138/31/3
f 39/57/2 17/162/2 19/163/2
f 19/163/2 21/164/2 39/57/2
f 21/164/2 23/58/2 39/57/2
f 23/58/2 25/165/2 27/166/2
f 27/166/2 29/167/2 23/58/2
f 29/167/2 31/168/2 23/58/2
f 31/168/2 33/169/2 35/56/2
f 35/56/2 37/170/2 39/57/2
f 31/168/2 35/56/2 23/58/2
f 162/59/3 165/171/3 164/60/6
f 164/60/6 167/63/7 166/62/7
f 167/63/7 169/65/8 168/64/8
f 169/65/8 171/67/9 170/66/9
f 171/67/9 173/69/10 172/68/10
f 173/69/10 175/71/1 174/70/1
f 175/71/1 177/73/11 176/72/11
f 177/73/11 179/75/12 178/74/12
f 179/75/12 181/77/5 180/76/5
f 181/77/5 183/82/13 182/78/13
f 46/81/4 44/172/4 62/79/4
f 44/172/4 42/173/4 62/79/4
f 42/173/4 185/174/4 62/79/4
f 62/79/4 60/175/4 54/80/4
f 60/175/4 58/176/4 54/80/4
f 58/176/4 56/177/4 54/80/4
f 54/80/4 52/178/4 50/179/4
f 50/179/4 48/180/4 46/81/4
f 54/80/4 50/179/4 46/81/4
f 183/82/13 64/84/14 184/83/14
f 64/84/14 165/171/3 162/59/3
f 63/181/2 41/182/2 43/183/2
f 43/183/2 45/184/2 47/85/2
f 47/85/2 49/185/2 51/86/2
f 51/86/2 53/186/2 55/87/2
f 55/87/2 57/187/2 63/181/2
f 57/187/2 59/188/2 63/181/2
f 59/188/2 61/189/2 63/181/2
f 63/181/2 43/183/2 55/87/2
f 43/183/2 47/85/2 55/87/2
f 189/88/3 188/91/6 187/89/6
f 188/91/6 191/190/7 190/92/7
f 190/92/7 191/190/7 193/93/8
f 192/94/8 193/93/8 195/95/9
f 195/95/9 197/191/10 196/97/10
f 196/97/10 197/191/10 199/98/1
f 199/98/1 201/192/11 200/100/11
f 200/100/11 201/192/11 203/101/12
f 203/101/12 205/104/5 204/103/5
f 205/104/5 207/109/13 206/105/13
f 70/108/4 68/193/4 66/194/4
f 66/194/4 209/195/4 86/106/4
f 86/106/4 84/196/4 82/197/4
f 82/197/4 80/198/4 78/107/4
f 78/107/4 76/199/4 74/200/4
f 74/200/4 72/201/4 70/108/4
f 70/108/4 66/194/4 86/106/4
f 86/106/4 82/197/4 78/107/4
f 78/107/4 74/200/4 70/108/4
f 207/109/13 88/111/14 208/110/14
f 88/111/14 189/88/3 186/90/3
f 87/114/2 65/202/2 67/203/2
f 67/203/2 69/204/2 71/112/2
f 71/112/2 73/205/2 75/206/2
f 75/206/2 77/207/2 71/112/2
f 77/207/2 79/113/2 71/112/2
f 79/113/2 81/208/2 83/209/2
f 83/209/2 85/210/2 87/114/2
f 87/114/2 67/203/2 71/112/2
f 79/113/2 83/209/2 87/114/2
f 210/115/3 213/211/3 212/116/6
f 212/116/6 215/119/7 214/118/7
f 215/119/7 217/212/8 216/120/8
f 216/120/8 217/212/8 219/121/9
f 219/121/9 221/124/10 220/123/10
f 221/124/10 223/126/1 222/125/1
f 223/126/1 225/213/11 224/127/11
f 224/127/11 225/213/11 227/128/12
f 227/128/12 229/214/5 228/130/5
f 228/130/5 229/214/5 231/131/13
f 94/134/4 92/215/4 110/135/4
f 92/215/4 90/216/4 110/135/4
f 90/216/4 233/217/4 110/135/4
f 110/135/4 108/218/4 102/219/4
f 108/218/4 106/220/4 102/219/4
f 106/220/4 104/221/4 102/219/4
f 102/219/4 100/222/4 98/133/4
f 98/133/4 96/223/4 94/134/4
f 102/219/4 98/133/4 110/135/4
f 231/131/13 112/137/14 232/136/14
f 112/137/14 213/211/3 210/115/3
f 111/140/2 89/224/2 95/138/2
f 89/224/2 91/225/2 95/138/2
f 91/225/2 93/226/2 95/138/2
f 95/138/2 97/227/2 99/228/2
f 99/228/2 101/229/2 95/138/2
f 101/229/2 103/139/2 95/138/2
f 103/139/2 105/230/2 107/231/2
f 107/231/2 109/232/2 103/139/2
f 109/232/2 111/140/2 103/139/2
