# Blender v2.79 (sub 0) OBJ File: 'cars.blend'
# www.blender.org
mtllib car8.mtl
o Icosphere
v 0.000000 0.460000 0.000000
v 0.723607 0.758501 0.525725
v -0.276388 0.758501 0.850649
v -0.894426 0.758504 0.000000
v -0.276388 0.758501 -0.850649
v 0.723607 0.758501 -0.525725
v 0.276388 1.241499 0.850649
v -0.723607 1.241499 0.525725
v -0.723607 1.241499 -0.525725
v 0.276388 1.241499 -0.850649
v 0.894426 1.241496 0.000000
v 0.000000 1.540000 0.000000
v -0.162456 0.540647 0.499995
v 0.425323 0.540647 0.309011
v 0.262869 0.716102 0.809012
v 0.850648 0.716103 0.000000
v 0.425323 0.540647 -0.309011
v -0.525730 0.540648 0.000000
v -0.688189 0.716102 0.499997
v -0.162456 0.540647 -0.499995
v -0.688189 0.716102 -0.499997
v 0.262869 0.716102 -0.809012
v 0.951058 1.000000 0.309013
v 0.951058 1.000000 -0.309013
v 0.000000 1.000000 1.000000
v 0.587786 1.000000 0.809017
v -0.951058 1.000000 0.309013
v -0.587786 1.000000 0.809017
v -0.587786 1.000000 -0.809017
v -0.951058 1.000000 -0.309013
v 0.587786 1.000000 -0.809017
v 0.000000 1.000000 -1.000000
v 0.688189 1.283898 0.499997
v -0.262869 1.283898 0.809012
v -0.850648 1.283897 0.000000
v -0.262869 1.283898 -0.809012
v 0.688189 1.283898 -0.499997
v 0.162456 1.459353 0.499995
v 0.525730 1.459352 0.000000
v -0.425323 1.459353 0.309011
v -0.425323 1.459353 -0.309011
v 0.162456 1.459353 -0.499995
v 0.325623 1.298751 0.236576
v -0.124375 1.298751 0.382792
v -0.402492 1.298753 0.000000
v -0.124375 1.298751 -0.382792
v 0.325623 1.298751 -0.236576
v 0.124375 1.701249 0.382792
v -0.325623 1.701249 0.236576
v -0.325623 1.701249 -0.236576
v 0.124375 1.701249 -0.382792
v 0.402492 1.701247 0.000000
v 0.000000 1.950000 0.000000
v 0.118291 1.263418 0.364055
v 0.382792 1.263419 0.000000
v -0.309685 1.263419 0.224999
v -0.309685 1.263419 -0.224999
v 0.118291 1.263418 -0.364055
v 0.427976 1.500000 0.139056
v 0.427976 1.500000 -0.139056
v 0.000000 1.500000 0.450000
v 0.264504 1.500000 0.364058
v -0.427976 1.500000 0.139056
v -0.264504 1.500000 0.364058
v -0.264504 1.500000 -0.364058
v -0.427976 1.500000 -0.139056
v 0.264504 1.500000 -0.364058
v 0.000000 1.500000 -0.450000
v 0.309685 1.736581 0.224999
v -0.118291 1.736582 0.364055
v -0.382792 1.736581 0.000000
v -0.118291 1.736582 -0.364055
v 0.309685 1.736581 -0.224999
v 0.073105 1.882794 0.224998
v 0.236578 1.882793 0.000000
v -0.191395 1.882794 0.139055
v -0.191395 1.882794 -0.139055
v 0.073105 1.882794 -0.224998
v 0.000000 2.000000 0.000000
v 0.000000 -2.000000 0.000000
v -1.000000 0.046227 1.000000
v 1.000000 0.046227 1.000000
v -1.000000 0.046227 -1.000000
v 1.000000 0.046227 -1.000000
vt 0.071237 0.006979
vt 0.327473 0.006979
vt 0.327473 0.486119
vt 0.071237 0.486119
vt 0.732758 0.498801
vt 0.845820 0.345200
vt 0.689573 0.250267
vt 0.925112 0.237477
vt 0.958882 0.498801
vt 0.593005 0.498801
vt 0.689573 0.747336
vt 0.845820 0.652403
vt 0.985574 0.345199
vt 0.659286 0.075966
vt 0.802635 0.096663
vt 0.732758 0.001727
vt 0.494996 0.498801
vt 0.549819 0.250266
vt 0.479941 0.345199
vt 0.659286 0.921637
vt 0.549819 0.747337
vt 0.576509 0.900943
vt 0.925112 0.760126
vt 0.802635 0.900940
vt 0.889007 0.900943
vt 0.889007 0.096660
vt 0.576509 0.096660
vt 0.479941 0.652404
vt 0.732758 0.995875
vt 0.985574 0.652404
vt 0.806229 0.075966
vt 0.915697 0.250266
vt 0.775943 0.250267
vt 0.540404 0.237477
vt 0.662880 0.096663
vt 0.619696 0.345200
vt 0.540404 0.760126
vt 0.506633 0.498801
vt 0.619696 0.652403
vt 0.806229 0.921637
vt 0.662880 0.900940
vt 0.775943 0.747336
vt 0.970520 0.498801
vt 0.915697 0.747337
vt 0.872511 0.498801
vt 0.732758 0.498801
vt 0.235245 0.675322
vt 0.249074 0.782332
vt 0.260004 0.719433
vt 0.126391 0.609184
vt 0.185092 0.617659
vt 0.156477 0.578784
vt 0.059115 0.782332
vt 0.081565 0.680559
vt 0.052951 0.719433
vt 0.126391 0.955480
vt 0.081565 0.884105
vt 0.092495 0.947006
vt 0.235245 0.889342
vt 0.185092 0.947005
vt 0.220460 0.947006
vt 0.220460 0.617658
vt 0.092495 0.617658
vt 0.052951 0.845231
vt 0.156477 0.985880
vt 0.260004 0.845231
vt 0.186563 0.609184
vt 0.231389 0.680559
vt 0.174161 0.680559
vt 0.077710 0.675322
vt 0.127863 0.617659
vt 0.110179 0.719433
vt 0.077710 0.889342
vt 0.063881 0.782332
vt 0.110179 0.845230
vt 0.186563 0.955480
vt 0.127863 0.947005
vt 0.174161 0.884105
vt 0.253839 0.782332
vt 0.231389 0.884105
vt 0.213705 0.782332
vt 0.156477 0.782332
vn 0.0000 1.0000 0.0000
vn 0.0000 -1.0000 0.0000
vn 0.2761 -0.9399 0.2006
vn -0.1054 -0.9399 0.3246
vn 0.6367 -0.6169 0.4626
vn 0.7217 -0.6922 0.0000
vn -0.3413 -0.9399 0.0000
vn -0.1054 -0.9399 -0.3246
vn 0.2761 -0.9399 -0.2006
vn 0.9510 0.0000 0.3090
vn -0.2432 -0.6169 0.7485
vn 0.2230 -0.6922 0.6864
vn 0.0000 0.0000 1.0000
vn -0.7870 -0.6169 0.0000
vn -0.5839 -0.6922 0.4242
vn -0.9510 0.0000 0.3090
vn -0.2432 -0.6169 -0.7485
vn -0.5839 -0.6922 -0.4242
vn -0.5878 0.0000 -0.8090
vn 0.6367 -0.6169 -0.4626
vn 0.2230 -0.6922 -0.6864
vn 0.5878 0.0000 -0.8090
vn 0.5878 0.0000 0.8090
vn -0.5878 0.0000 0.8090
vn -0.9510 0.0000 -0.3090
vn 0.0000 0.0000 -1.0000
vn 0.9510 0.0000 -0.3090
vn 0.2432 0.6169 0.7485
vn 0.5839 0.6922 0.4242
vn 0.1054 0.9399 0.3246
vn -0.6367 0.6169 0.4626
vn -0.2230 0.6922 0.6864
vn -0.2761 0.9399 0.2006
vn -0.6367 0.6169 -0.4626
vn -0.7217 0.6922 0.0000
vn -0.2761 0.9399 -0.2006
vn 0.2432 0.6169 -0.7485
vn -0.2230 0.6922 -0.6864
vn 0.1054 0.9399 -0.3246
vn 0.7870 0.6169 0.0000
vn 0.5839 0.6922 -0.4242
vn 0.3413 0.9399 0.0000
vn 0.7783 -0.2730 0.5654
vn 0.9576 -0.2880 0.0000
vn -0.2973 -0.2730 0.9149
vn 0.2959 -0.2880 0.9107
vn -0.9620 -0.2730 0.0000
vn -0.7747 -0.2880 0.5629
vn -0.2973 -0.2730 -0.9149
vn -0.7747 -0.2880 -0.5629
vn 0.7783 -0.2730 -0.5654
vn 0.2959 -0.2880 -0.9107
vn 0.2764 0.4472 0.8506
vn 0.6882 0.5257 0.5000
vn 0.1625 0.8506 0.5000
vn -0.7236 0.4472 0.5257
vn -0.2629 0.5257 0.8090
vn -0.4253 0.8506 0.3090
vn -0.7236 0.4472 -0.5257
vn -0.8506 0.5257 0.0000
vn -0.4253 0.8506 -0.3090
vn 0.2764 0.4472 -0.8506
vn -0.2629 0.5257 -0.8090
vn 0.1625 0.8506 -0.5000
vn 0.8944 0.4472 0.0000
vn 0.6882 0.5257 -0.5000
vn 0.5257 0.8506 0.0000
usemtl None
s off
f 81/1/1 82/2/1 84/3/1 83/4/1
s 1
f 1/5/2 14/6/3 13/7/4
f 2/8/5 14/6/3 16/9/6
f 1/5/2 13/7/4 18/10/7
f 1/5/2 18/10/7 20/11/8
f 1/5/2 20/11/8 17/12/9
f 2/8/5 16/9/6 23/13/10
f 3/14/11 15/15/12 25/16/13
f 4/17/14 19/18/15 27/19/16
f 5/20/17 21/21/18 29/22/19
f 6/23/20 22/24/21 31/25/22
f 2/8/5 23/13/10 26/26/23
f 3/14/11 25/16/13 28/27/24
f 4/17/14 27/19/16 30/28/25
f 5/20/17 29/22/19 32/29/26
f 6/23/20 31/25/22 24/30/27
f 7/31/28 33/32/29 38/33/30
f 8/34/31 34/35/32 40/36/33
f 9/37/34 35/38/35 41/39/36
f 10/40/37 36/41/38 42/42/39
f 11/43/40 37/44/41 39/45/42
f 39/45/42 42/42/39 12/46/1
f 39/45/42 37/44/41 42/42/39
f 37/44/41 10/40/37 42/42/39
f 42/42/39 41/39/36 12/46/1
f 42/42/39 36/41/38 41/39/36
f 36/41/38 9/37/34 41/39/36
f 41/39/36 40/36/33 12/46/1
f 41/39/36 35/38/35 40/36/33
f 35/38/35 8/34/31 40/36/33
f 40/36/33 38/33/30 12/46/1
f 40/36/33 34/35/32 38/33/30
f 34/35/32 7/31/28 38/33/30
f 38/33/30 39/45/42 12/46/1
f 38/33/30 33/32/29 39/45/42
f 33/32/29 11/43/40 39/45/42
f 24/30/27 37/44/41 11/43/40
f 24/30/27 31/25/22 37/44/41
f 31/25/22 10/40/37 37/44/41
f 32/29/26 36/41/38 10/40/37
f 32/29/26 29/22/19 36/41/38
f 29/22/19 9/37/34 36/41/38
f 30/28/25 35/38/35 9/37/34
f 30/28/25 27/19/16 35/38/35
f 27/19/16 8/34/31 35/38/35
f 28/27/24 34/35/32 8/34/31
f 28/27/24 25/16/13 34/35/32
f 25/16/13 7/31/28 34/35/32
f 26/26/23 33/32/29 7/31/28
f 26/26/23 23/13/10 33/32/29
f 23/13/10 11/43/40 33/32/29
f 31/25/22 32/29/26 10/40/37
f 31/25/22 22/24/21 32/29/26
f 22/24/21 5/20/17 32/29/26
f 29/22/19 30/28/25 9/37/34
f 29/22/19 21/21/18 30/28/25
f 21/21/18 4/17/14 30/28/25
f 27/19/16 28/27/24 8/34/31
f 27/19/16 19/18/15 28/27/24
f 19/18/15 3/14/11 28/27/24
f 25/16/13 26/26/23 7/31/28
f 25/16/13 15/15/12 26/26/23
f 15/15/12 2/8/5 26/26/23
f 23/13/10 24/30/27 11/43/40
f 23/13/10 16/9/6 24/30/27
f 16/9/6 6/23/20 24/30/27
f 17/12/9 22/24/21 6/23/20
f 17/12/9 20/11/8 22/24/21
f 20/11/8 5/20/17 22/24/21
f 20/11/8 21/21/18 5/20/17
f 20/11/8 18/10/7 21/21/18
f 18/10/7 4/17/14 21/21/18
f 18/10/7 19/18/15 4/17/14
f 18/10/7 13/7/4 19/18/15
f 13/7/4 3/14/11 19/18/15
f 16/9/6 17/12/9 6/23/20
f 16/9/6 14/6/3 17/12/9
f 14/6/3 1/5/2 17/12/9
f 13/7/4 15/15/12 3/14/11
f 13/7/4 14/6/3 15/15/12
f 14/6/3 2/8/5 15/15/12
f 43/47/43 55/48/44 59/49/10
f 44/50/45 54/51/46 61/52/13
f 45/53/47 56/54/48 63/55/16
f 46/56/49 57/57/50 65/58/19
f 47/59/51 58/60/52 67/61/22
f 43/47/43 59/49/10 62/62/23
f 44/50/45 61/52/13 64/63/24
f 45/53/47 63/55/16 66/64/25
f 46/56/49 65/58/19 68/65/26
f 47/59/51 67/61/22 60/66/27
f 48/67/53 69/68/54 74/69/55
f 49/70/56 70/71/57 76/72/58
f 50/73/59 71/74/60 77/75/61
f 51/76/62 72/77/63 78/78/64
f 52/79/65 73/80/66 75/81/67
f 75/81/67 78/78/64 53/82/1
f 75/81/67 73/80/66 78/78/64
f 73/80/66 51/76/62 78/78/64
f 78/78/64 77/75/61 53/82/1
f 78/78/64 72/77/63 77/75/61
f 72/77/63 50/73/59 77/75/61
f 77/75/61 76/72/58 53/82/1
f 77/75/61 71/74/60 76/72/58
f 71/74/60 49/70/56 76/72/58
f 76/72/58 74/69/55 53/82/1
f 76/72/58 70/71/57 74/69/55
f 70/71/57 48/67/53 74/69/55
f 74/69/55 75/81/67 53/82/1
f 74/69/55 69/68/54 75/81/67
f 69/68/54 52/79/65 75/81/67
f 60/66/27 73/80/66 52/79/65
f 60/66/27 67/61/22 73/80/66
f 67/61/22 51/76/62 73/80/66
f 68/65/26 72/77/63 51/76/62
f 68/65/26 65/58/19 72/77/63
f 65/58/19 50/73/59 72/77/63
f 66/64/25 71/74/60 50/73/59
f 66/64/25 63/55/16 71/74/60
f 63/55/16 49/70/56 71/74/60
f 64/63/24 70/71/57 49/70/56
f 64/63/24 61/52/13 70/71/57
f 61/52/13 48/67/53 70/71/57
f 62/62/23 69/68/54 48/67/53
f 62/62/23 59/49/10 69/68/54
f 59/49/10 52/79/65 69/68/54
f 67/61/22 68/65/26 51/76/62
f 67/61/22 58/60/52 68/65/26
f 58/60/52 46/56/49 68/65/26
f 65/58/19 66/64/25 50/73/59
f 65/58/19 57/57/50 66/64/25
f 57/57/50 45/53/47 66/64/25
f 63/55/16 64/63/24 49/70/56
f 63/55/16 56/54/48 64/63/24
f 56/54/48 44/50/45 64/63/24
f 61/52/13 62/62/23 48/67/53
f 61/52/13 54/51/46 62/62/23
f 54/51/46 43/47/43 62/62/23
f 59/49/10 60/66/27 52/79/65
f 59/49/10 55/48/44 60/66/27
f 55/48/44 47/59/51 60/66/27
