# Blender v2.79 (sub 0) OBJ File: 'cars.blend'
# www.blender.org
mtllib car9.mtl
o Cylinder.004_Cylinder.009
v -1.125000 -0.017317 0.959146
v -1.125000 -0.017317 0.750000
v -0.935979 0.060979 0.959146
v -0.935979 0.060979 0.750000
v -0.857683 0.250000 0.959146
v -0.857683 0.250000 0.750000
v -0.935979 0.439021 0.959146
v -0.935979 0.439021 0.750000
v -1.125000 0.517317 0.959146
v -1.125000 0.517317 0.750000
v -1.314021 0.439021 0.959146
v -1.314021 0.439021 0.750000
v -1.392317 0.250000 0.959146
v -1.392317 0.250000 0.750000
v -1.314021 0.060979 0.959146
v -1.314021 0.060979 0.750000
v -1.125000 0.517317 -0.959146
v -1.125000 0.517317 -0.750000
v -0.935979 0.439021 -0.959146
v -0.935979 0.439021 -0.750000
v -0.857683 0.250000 -0.959146
v -0.857683 0.250000 -0.750000
v -0.935979 0.060979 -0.959146
v -0.935979 0.060979 -0.750000
v -1.125000 -0.017317 -0.959146
v -1.125000 -0.017317 -0.750000
v -1.314021 0.060979 -0.959146
v -1.314021 0.060979 -0.750000
v -1.392317 0.250000 -0.959146
v -1.392317 0.250000 -0.750000
v -1.314021 0.439021 -0.959146
v -1.314021 0.439021 -0.750000
vt 0.914157 0.195804
vt 0.970858 0.229565
vt 0.914157 0.195804
vt 0.970858 0.229565
vt 0.994344 0.311073
vt 0.970858 0.392580
vt 0.970858 0.392580
vt 0.914157 0.426342
vt 0.914157 0.426342
vt 0.857456 0.392580
vt 0.857456 0.392580
vt 0.833970 0.311073
vt 0.833970 0.311073
vt 0.994344 0.311073
vt 0.857456 0.229565
vt 0.857456 0.229565
vt 0.914157 0.426342
vt 0.970858 0.392580
vt 0.970858 0.392580
vt 0.994344 0.311073
vt 0.994344 0.311073
vt 0.970858 0.229565
vt 0.970858 0.229565
vt 0.914157 0.195803
vt 0.914157 0.195803
vt 0.857456 0.229565
vt 0.857456 0.229565
vt 0.833970 0.311073
vt 0.833970 0.311073
vt 0.857456 0.392580
vt 0.857456 0.392580
vt 0.914157 0.426342
vn 0.3827 -0.9239 0.0000
vn 0.9239 -0.3827 0.0000
vn 0.9239 0.3827 0.0000
vn 0.3827 0.9239 0.0000
vn -0.3827 0.9239 0.0000
vn -0.9239 0.3827 -0.0000
vn 0.0000 -0.0000 -1.0000
vn -0.9239 -0.3827 0.0000
vn -0.3827 -0.9239 0.0000
vn -0.0000 0.0000 1.0000
usemtl None
s off
f 2/1/1 3/2/1 1/3/1
f 4/4/2 5/5/2 3/2/2
f 5/5/3 8/6/3 7/7/3
f 8/6/4 9/8/4 7/7/4
f 10/9/5 11/10/5 9/8/5
f 12/11/6 13/12/6 11/10/6
f 14/13/7 10/9/7 6/14/7
f 14/13/8 15/15/8 13/12/8
f 16/16/9 1/3/9 15/15/9
f 15/15/10 3/2/10 7/7/10
f 17/17/4 20/18/4 19/19/4
f 20/18/3 21/20/3 19/19/3
f 22/21/2 23/22/2 21/20/2
f 24/23/1 25/24/1 23/22/1
f 26/25/9 27/26/9 25/24/9
f 28/27/8 29/28/8 27/26/8
f 24/23/10 22/21/10 30/29/10
f 30/29/6 31/30/6 29/28/6
f 32/31/5 17/17/5 31/30/5
f 29/28/7 31/30/7 23/22/7
f 2/1/1 4/4/1 3/2/1
f 4/4/2 6/14/2 5/5/2
f 5/5/3 6/14/3 8/6/3
f 8/6/4 10/9/4 9/8/4
f 10/9/5 12/11/5 11/10/5
f 12/11/6 14/13/6 13/12/6
f 6/14/7 4/4/7 2/1/7
f 2/1/7 16/16/7 14/13/7
f 14/13/7 12/11/7 10/9/7
f 10/9/7 8/6/7 6/14/7
f 6/14/7 2/1/7 14/13/7
f 14/13/8 16/16/8 15/15/8
f 16/16/9 2/1/9 1/3/9
f 15/15/10 1/3/10 3/2/10
f 3/2/10 5/5/10 7/7/10
f 7/7/10 9/8/10 11/10/10
f 11/10/10 13/12/10 7/7/10
f 13/12/10 15/15/10 7/7/10
f 17/17/4 18/32/4 20/18/4
f 20/18/3 22/21/3 21/20/3
f 22/21/2 24/23/2 23/22/2
f 24/23/1 26/25/1 25/24/1
f 26/25/9 28/27/9 27/26/9
f 28/27/8 30/29/8 29/28/8
f 22/21/10 20/18/10 30/29/10
f 20/18/10 18/32/10 30/29/10
f 18/32/10 32/31/10 30/29/10
f 30/29/10 28/27/10 26/25/10
f 26/25/10 24/23/10 30/29/10
f 30/29/6 32/31/6 31/30/6
f 32/31/5 18/32/5 17/17/5
f 31/30/7 17/17/7 23/22/7
f 17/17/7 19/19/7 23/22/7
f 19/19/7 21/20/7 23/22/7
f 23/22/7 25/24/7 27/26/7
f 27/26/7 29/28/7 23/22/7
o Cylinder.002_Cylinder.008
v -0.500000 -0.017317 0.959146
v -0.500000 -0.017317 0.750000
v -0.310979 0.060979 0.959146
v -0.310979 0.060979 0.750000
v -0.232683 0.250000 0.959146
v -0.232683 0.250000 0.750000
v -0.310979 0.439021 0.959146
v -0.310979 0.439021 0.750000
v -0.500000 0.517317 0.959146
v -0.500000 0.517317 0.750000
v -0.689021 0.439021 0.959146
v -0.689021 0.439021 0.750000
v -0.767317 0.250000 0.959146
v -0.767317 0.250000 0.750000
v -0.689021 0.060979 0.959146
v -0.689021 0.060979 0.750000
v -0.500000 0.517317 -0.959146
v -0.500000 0.517317 -0.750000
v -0.310979 0.439021 -0.959146
v -0.310979 0.439021 -0.750000
v -0.232683 0.250000 -0.959146
v -0.232683 0.250000 -0.750000
v -0.310979 0.060979 -0.959146
v -0.310979 0.060979 -0.750000
v -0.500000 -0.017317 -0.959146
v -0.500000 -0.017317 -0.750000
v -0.689021 0.060979 -0.959146
v -0.689021 0.060979 -0.750000
v -0.767317 0.250000 -0.959146
v -0.767317 0.250000 -0.750000
v -0.689021 0.439021 -0.959146
v -0.689021 0.439021 -0.750000
vt 0.914157 0.195804
vt 0.970858 0.229565
vt 0.914157 0.195804
vt 0.970858 0.229565
vt 0.994344 0.311073
vt 0.970858 0.392580
vt 0.970858 0.392580
vt 0.914157 0.426342
vt 0.914157 0.426342
vt 0.857456 0.392580
vt 0.857456 0.392580
vt 0.833970 0.311073
vt 0.833970 0.311073
vt 0.994344 0.311073
vt 0.857456 0.229565
vt 0.857456 0.229565
vt 0.914157 0.426342
vt 0.970858 0.392580
vt 0.970858 0.392580
vt 0.994344 0.311073
vt 0.994344 0.311073
vt 0.970858 0.229565
vt 0.970858 0.229565
vt 0.914157 0.195803
vt 0.914157 0.195803
vt 0.857456 0.229565
vt 0.857456 0.229565
vt 0.833970 0.311073
vt 0.833970 0.311073
vt 0.857456 0.392580
vt 0.857456 0.392580
vt 0.914157 0.426342
vn 0.3827 -0.9239 0.0000
vn 0.9239 -0.3827 0.0000
vn 0.9239 0.3827 0.0000
vn 0.3827 0.9239 0.0000
vn -0.3827 0.9239 0.0000
vn -0.9239 0.3827 -0.0000
vn 0.0000 -0.0000 -1.0000
vn -0.9239 -0.3827 0.0000
vn -0.3827 -0.9239 0.0000
vn -0.0000 0.0000 1.0000
usemtl None
s off
f 34/33/11 35/34/11 33/35/11
f 36/36/12 37/37/12 35/34/12
f 37/37/13 40/38/13 39/39/13
f 40/38/14 41/40/14 39/39/14
f 42/41/15 43/42/15 41/40/15
f 44/43/16 45/44/16 43/42/16
f 46/45/17 42/41/17 38/46/17
f 46/45/18 47/47/18 45/44/18
f 48/48/19 33/35/19 47/47/19
f 47/47/20 35/34/20 39/39/20
f 49/49/14 52/50/14 51/51/14
f 52/50/13 53/52/13 51/51/13
f 54/53/12 55/54/12 53/52/12
f 56/55/11 57/56/11 55/54/11
f 58/57/19 59/58/19 57/56/19
f 60/59/18 61/60/18 59/58/18
f 56/55/20 54/53/20 62/61/20
f 62/61/16 63/62/16 61/60/16
f 64/63/15 49/49/15 63/62/15
f 61/60/17 63/62/17 55/54/17
f 34/33/11 36/36/11 35/34/11
f 36/36/12 38/46/12 37/37/12
f 37/37/13 38/46/13 40/38/13
f 40/38/14 42/41/14 41/40/14
f 42/41/15 44/43/15 43/42/15
f 44/43/16 46/45/16 45/44/16
f 38/46/17 36/36/17 34/33/17
f 34/33/17 48/48/17 46/45/17
f 46/45/17 44/43/17 42/41/17
f 42/41/17 40/38/17 38/46/17
f 38/46/17 34/33/17 46/45/17
f 46/45/18 48/48/18 47/47/18
f 48/48/19 34/33/19 33/35/19
f 47/47/20 33/35/20 35/34/20
f 35/34/20 37/37/20 39/39/20
f 39/39/20 41/40/20 43/42/20
f 43/42/20 45/44/20 39/39/20
f 45/44/20 47/47/20 39/39/20
f 49/49/14 50/64/14 52/50/14
f 52/50/13 54/53/13 53/52/13
f 54/53/12 56/55/12 55/54/12
f 56/55/11 58/57/11 57/56/11
f 58/57/19 60/59/19 59/58/19
f 60/59/18 62/61/18 61/60/18
f 54/53/20 52/50/20 62/61/20
f 52/50/20 50/64/20 62/61/20
f 50/64/20 64/63/20 62/61/20
f 62/61/20 60/59/20 58/57/20
f 58/57/20 56/55/20 62/61/20
f 62/61/16 64/63/16 63/62/16
f 64/63/15 50/64/15 49/49/15
f 63/62/17 49/49/17 55/54/17
f 49/49/17 51/51/17 55/54/17
f 51/51/17 53/52/17 55/54/17
f 55/54/17 57/56/17 59/58/17
f 59/58/17 61/60/17 55/54/17
o Cylinder.003_Cylinder.005
v 1.125000 -0.017317 0.959146
v 1.125000 -0.017317 0.750000
v 1.314021 0.060979 0.959146
v 1.314021 0.060979 0.750000
v 1.392317 0.250000 0.959146
v 1.392317 0.250000 0.750000
v 1.314021 0.439021 0.959146
v 1.314021 0.439021 0.750000
v 1.125000 0.517317 0.959146
v 1.125000 0.517317 0.750000
v 0.935979 0.439021 0.959146
v 0.935979 0.439021 0.750000
v 0.857683 0.250000 0.959146
v 0.857683 0.250000 0.750000
v 0.935979 0.060979 0.959146
v 0.935979 0.060979 0.750000
v 1.125000 0.517317 -0.959146
v 1.125000 0.517317 -0.750000
v 1.314021 0.439021 -0.959146
v 1.314021 0.439021 -0.750000
v 1.392317 0.250000 -0.959146
v 1.392317 0.250000 -0.750000
v 1.314021 0.060979 -0.959146
v 1.314021 0.060979 -0.750000
v 1.125000 -0.017317 -0.959146
v 1.125000 -0.017317 -0.750000
v 0.935979 0.060979 -0.959146
v 0.935979 0.060979 -0.750000
v 0.857683 0.250000 -0.959146
v 0.857683 0.250000 -0.750000
v 0.935979 0.439021 -0.959146
v 0.935979 0.439021 -0.750000
vt 0.914157 0.195804
vt 0.970858 0.229565
vt 0.914157 0.195804
vt 0.970858 0.229565
vt 0.994344 0.311073
vt 0.970858 0.392580
vt 0.970858 0.392580
vt 0.914157 0.426342
vt 0.914157 0.426342
vt 0.857456 0.392580
vt 0.857456 0.392580
vt 0.833970 0.311073
vt 0.833970 0.311073
vt 0.994344 0.311073
vt 0.857456 0.229565
vt 0.857456 0.229565
vt 0.914157 0.426342
vt 0.970858 0.392580
vt 0.970858 0.392580
vt 0.994344 0.311073
vt 0.994344 0.311073
vt 0.970858 0.229565
vt 0.970858 0.229565
vt 0.914157 0.195803
vt 0.914157 0.195803
vt 0.857456 0.229565
vt 0.857456 0.229565
vt 0.833970 0.311073
vt 0.833970 0.311073
vt 0.857456 0.392580
vt 0.857456 0.392580
vt 0.914157 0.426342
vn 0.3827 -0.9239 0.0000
vn 0.9239 -0.3827 0.0000
vn 0.9239 0.3827 0.0000
vn 0.3827 0.9239 0.0000
vn -0.3827 0.9239 0.0000
vn -0.9239 0.3827 -0.0000
vn 0.0000 -0.0000 -1.0000
vn -0.9239 -0.3827 0.0000
vn -0.3827 -0.9239 0.0000
vn -0.0000 0.0000 1.0000
usemtl None
s off
f 66/65/21 67/66/21 65/67/21
f 68/68/22 69/69/22 67/66/22
f 69/69/23 72/70/23 71/71/23
f 72/70/24 73/72/24 71/71/24
f 74/73/25 75/74/25 73/72/25
f 76/75/26 77/76/26 75/74/26
f 78/77/27 74/73/27 70/78/27
f 78/77/28 79/79/28 77/76/28
f 80/80/29 65/67/29 79/79/29
f 79/79/30 67/66/30 71/71/30
f 81/81/24 84/82/24 83/83/24
f 84/82/23 85/84/23 83/83/23
f 86/85/22 87/86/22 85/84/22
f 88/87/21 89/88/21 87/86/21
f 90/89/29 91/90/29 89/88/29
f 92/91/28 93/92/28 91/90/28
f 88/87/30 86/85/30 94/93/30
f 94/93/26 95/94/26 93/92/26
f 96/95/25 81/81/25 95/94/25
f 93/92/27 95/94/27 87/86/27
f 66/65/21 68/68/21 67/66/21
f 68/68/22 70/78/22 69/69/22
f 69/69/23 70/78/23 72/70/23
f 72/70/24 74/73/24 73/72/24
f 74/73/25 76/75/25 75/74/25
f 76/75/26 78/77/26 77/76/26
f 70/78/27 68/68/27 66/65/27
f 66/65/27 80/80/27 78/77/27
f 78/77/27 76/75/27 74/73/27
f 74/73/27 72/70/27 70/78/27
f 70/78/27 66/65/27 78/77/27
f 78/77/28 80/80/28 79/79/28
f 80/80/29 66/65/29 65/67/29
f 79/79/30 65/67/30 67/66/30
f 67/66/30 69/69/30 71/71/30
f 71/71/30 73/72/30 75/74/30
f 75/74/30 77/76/30 71/71/30
f 77/76/30 79/79/30 71/71/30
f 81/81/24 82/96/24 84/82/24
f 84/82/23 86/85/23 85/84/23
f 86/85/22 88/87/22 87/86/22
f 88/87/21 90/89/21 89/88/21
f 90/89/29 92/91/29 91/90/29
f 92/91/28 94/93/28 93/92/28
f 86/85/30 84/82/30 94/93/30
f 84/82/30 82/96/30 94/93/30
f 82/96/30 96/95/30 94/93/30
f 94/93/30 92/91/30 90/89/30
f 90/89/30 88/87/30 94/93/30
f 94/93/26 96/95/26 95/94/26
f 96/95/25 82/96/25 81/81/25
f 95/94/27 81/81/27 87/86/27
f 81/81/27 83/83/27 87/86/27
f 83/83/27 85/84/27 87/86/27
f 87/86/27 89/88/27 91/90/27
f 91/90/27 93/92/27 87/86/27
o Plane.002_Plane.001
v -1.500000 0.375000 0.875000
v 1.500000 0.375000 0.875000
v -1.500000 0.375000 -0.875000
v 1.500000 0.375000 -0.875000
v -1.250000 1.175000 -0.625000
v -1.250000 1.175000 0.625000
v 0.000000 1.175000 0.625000
v 0.000000 1.175000 -0.625000
v -1.500000 1.175000 -0.875000
v -1.500000 1.175000 0.875000
v 1.500000 1.175000 0.875000
v 1.500000 1.175000 -0.875000
v -1.250000 0.575000 -0.625000
v -1.250000 0.575000 0.625000
v 0.000000 0.575000 0.625000
v 0.000000 0.575000 -0.625000
v 0.100000 0.855013 0.750000
v 0.100000 1.975000 0.750000
v 0.100000 0.855013 -0.750000
v 0.100000 1.975000 -0.750000
v 0.900000 0.855013 0.750000
v 0.900000 1.975000 0.750000
v 0.900000 0.855013 -0.750000
v 0.900000 1.975000 -0.750000
v 0.000000 -2.000000 -0.750000
v 0.000000 2.000000 -0.750000
vt 0.181634 0.499422
vt 0.181634 0.130911
vt 0.181634 0.499422
vt 0.689264 0.008074
vt 0.097029 0.499422
vt 0.097029 0.008074
vt 0.097029 0.008074
vt 0.689264 0.499422
vt 0.689264 0.008074
vt 0.689264 0.499422
vt 0.097029 0.499422
vt 0.604659 0.499422
vt 0.604659 0.499422
vt 0.181634 0.130911
vt 0.604659 0.130911
vt 0.487500 0.387500
vt 0.387500 0.487500
vt 0.387500 0.387500
vt 0.487500 0.387500
vt 0.387500 0.487500
vt 0.387500 0.387500
vt 0.604659 0.130911
vt 0.139332 0.990769
vt 0.646962 0.302890
vt 0.139332 0.302890
vt 0.111809 0.976952
vt 0.666165 0.352517
vt 0.111809 0.352517
vt 0.646962 0.990769
vt 0.139332 0.302890
vt 0.646962 0.302890
vt 0.666165 0.976952
vt 0.111809 0.352517
vt 0.666165 0.352517
vt 0.646962 0.990769
vt 0.139332 0.990769
vt 0.487500 0.487500
vt 0.487500 0.487500
vt 0.666165 0.976952
vt 0.111809 0.976952
vn 0.0000 0.0000 -1.0000
vn 1.0000 0.0000 0.0000
vn -1.0000 0.0000 0.0000
vn 0.0000 0.0000 1.0000
vn 0.0000 1.0000 0.0000
usemtl None
s off
f 103/97/31 110/98/31 102/99/31
f 100/100/32 107/101/32 98/102/32
f 97/103/33 105/104/33 99/105/33
f 99/105/31 108/106/31 100/100/31
f 98/102/34 106/107/34 97/103/34
f 101/108/35 106/107/35 102/99/35
f 103/97/35 106/107/35 107/101/35
f 103/97/35 108/106/35 104/109/35
f 104/109/35 105/104/35 101/108/35
f 111/110/35 109/111/35 110/98/35
f 104/112/33 111/113/33 103/114/33
f 102/115/32 109/116/32 101/117/32
f 101/108/34 112/118/34 104/109/34
f 114/119/33 115/120/33 113/121/33
f 116/122/31 119/123/31 115/124/31
f 120/125/32 117/126/32 119/127/32
f 118/128/34 113/129/34 117/130/34
f 116/131/35 118/132/35 120/125/35
f 103/97/31 111/110/31 110/98/31
f 100/100/32 108/106/32 107/101/32
f 97/103/33 106/107/33 105/104/33
f 99/105/31 105/104/31 108/106/31
f 98/102/34 107/101/34 106/107/34
f 101/108/35 105/104/35 106/107/35
f 103/97/35 102/99/35 106/107/35
f 103/97/35 107/101/35 108/106/35
f 104/109/35 108/106/35 105/104/35
f 111/110/35 112/118/35 109/111/35
f 104/112/33 112/133/33 111/113/33
f 102/115/32 110/134/32 109/116/32
f 101/108/34 109/111/34 112/118/34
f 114/119/33 116/131/33 115/120/33
f 116/122/31 120/135/31 119/123/31
f 120/125/32 118/132/32 117/126/32
f 118/128/34 114/136/34 113/129/34
f 116/131/35 114/119/35 118/132/35
