# Blender v2.79 (sub 0) OBJ File: 'models.blend'
# www.blender.org
mtllib coin.mtl
o Cylinder.003
v 0.000000 -1.000000 1.000000
v 0.000000 -1.000000 -1.000000
v 0.707107 -0.707107 1.000000
v 0.707107 -0.707107 -1.000000
v 1.000000 0.000000 1.000000
v 1.000000 0.000000 -1.000000
v 0.707107 0.707107 1.000000
v 0.707107 0.707107 -1.000000
v -0.000000 1.000000 1.000000
v -0.000000 1.000000 -1.000000
v -0.707107 0.707107 1.000000
v -0.707107 0.707107 -1.000000
v -1.000000 0.000000 1.000000
v -1.000000 -0.000000 -1.000000
v -0.707107 -0.707107 1.000000
v -0.707107 -0.707107 -1.000000
vt 1.000000 0.000000
vt 0.895833 1.000000
vt 0.895833 0.000000
vt 1.000000 0.000000
vt 0.895833 1.000000
vt 0.895833 0.000000
vt 1.000000 0.000000
vt 0.895833 1.000000
vt 0.895833 0.000000
vt 1.000000 0.000000
vt 0.895833 1.000000
vt 0.895833 0.000000
vt 1.000000 0.000000
vt 0.895833 1.000000
vt 0.895833 0.000000
vt 1.000000 0.000000
vt 0.895833 1.000000
vt 0.895833 0.000000
vt 0.021425 0.504397
vt 0.450168 0.022062
vt 0.878910 0.504396
vt 1.000000 0.000000
vt 0.895833 1.000000
vt 0.895833 0.000000
vt 1.000000 0.000000
vt 0.895833 1.000000
vt 0.895833 0.000000
vt 0.147001 0.163334
vt 0.753334 0.163334
vt 0.753334 0.845459
vt 1.000000 1.000000
vt 1.000000 1.000000
vt 1.000000 1.000000
vt 1.000000 1.000000
vt 1.000000 1.000000
vt 1.000000 1.000000
vt 0.147001 0.163334
vt 0.753334 0.163334
vt 0.753334 0.845459
vt 0.450168 0.986732
vt 0.147001 0.845459
vt 1.000000 1.000000
vt 1.000000 1.000000
vt 0.450167 0.022062
vt 0.878910 0.504397
vt 0.450167 0.986732
vt 0.147001 0.845459
vt 0.021425 0.504397
vn 0.3827 -0.9239 0.0000
vn 0.9239 -0.3827 0.0000
vn 0.9239 0.3827 -0.0000
vn 0.3827 0.9239 -0.0000
vn -0.3827 0.9239 -0.0000
vn -0.9239 0.3827 -0.0000
vn 0.0000 -0.0000 -1.0000
vn -0.9239 -0.3827 0.0000
vn -0.3827 -0.9239 0.0000
vn -0.0000 0.0000 1.0000
usemtl None
s off
f 2/1/1 3/2/1 1/3/1
f 4/4/2 5/5/2 3/6/2
f 6/7/3 7/8/3 5/9/3
f 8/10/4 9/11/4 7/12/4
f 10/13/5 11/14/5 9/15/5
f 12/16/6 13/17/6 11/18/6
f 6/19/7 2/20/7 14/21/7
f 14/22/8 15/23/8 13/24/8
f 16/25/9 1/26/9 15/27/9
f 15/28/10 3/29/10 7/30/10
f 2/1/1 4/31/1 3/2/1
f 4/4/2 6/32/2 5/5/2
f 6/7/3 8/33/3 7/8/3
f 8/10/4 10/34/4 9/11/4
f 10/13/5 12/35/5 11/14/5
f 12/16/6 14/36/6 13/17/6
f 6/19/7 4/37/7 2/20/7
f 2/20/7 16/38/7 14/21/7
f 14/21/7 12/39/7 10/40/7
f 10/40/7 8/41/7 14/21/7
f 8/41/7 6/19/7 14/21/7
f 14/22/8 16/42/8 15/23/8
f 16/25/9 2/43/9 1/26/9
f 15/28/10 1/44/10 3/29/10
f 3/29/10 5/45/10 7/30/10
f 7/30/10 9/46/10 11/47/10
f 11/47/10 13/48/10 7/30/10
f 13/48/10 15/28/10 7/30/10
