# Blender v2.79 (sub 0) OBJ File: 'models.blend'
# www.blender.org
mtllib curve190.mtl
o Cylinder.001
v -1.500000 -1.000000 -1.500000
v -1.500000 1.000000 -1.500000
v -0.351950 1.000000 -1.271638
v -0.351950 -1.000000 -1.271638
v -1.500000 1.000000 0.500407
v -1.117472 1.000000 0.576497
v 0.621320 1.000000 -0.621320
v 0.621320 -1.000000 -0.621320
v -1.500000 -1.000000 0.500407
v -1.117472 -1.000000 0.576497
v -0.793181 1.000000 0.793181
v 1.271638 1.000000 0.351950
v 1.271638 -1.000000 0.351950
v -0.500407 -1.000000 1.500000
v -0.576497 -1.000000 1.117472
v -0.793181 -1.000000 0.793181
v -0.576497 1.000000 1.117472
v 1.500000 1.000000 1.500000
v 1.500000 -1.000000 1.500000
v -0.500407 1.000000 1.500000
vt 0.000000 1.000000
vt 0.000000 1.000000
vt 0.382683 0.923880
vt 0.382683 0.923880
vt 0.000000 0.333198
vt 0.127509 0.307835
vt 0.707107 0.707107
vt 0.707107 0.707107
vt 0.000000 0.333198
vt 0.127509 0.307835
vt 0.235606 0.235606
vt 0.923879 0.382684
vt 0.923879 0.382684
vt 0.235606 0.235606
vt 0.307835 0.127509
vt 1.000000 0.000000
vt 1.000000 0.000000
vt 0.333198 0.000000
vt 0.307835 0.127509
vt 0.333198 0.000000
vn 0.1951 0.0000 -0.9808
vn 0.0000 1.0000 0.0000
vn 0.5556 0.0000 -0.8315
vn -0.1951 0.0000 0.9808
vn 0.8315 0.0000 -0.5556
vn -0.5556 0.0000 0.8315
vn 0.9808 0.0000 -0.1951
vn -0.9808 0.0000 0.1951
vn -0.8315 0.0000 0.5556
vn -1.0000 0.0000 -0.0000
vn 0.0000 0.0000 1.0000
usemtl None
s off
f 1/1/1 2/2/1 3/3/1 4/4/1
f 5/5/2 6/6/2 3/3/2 2/2/2
f 4/4/3 3/3/3 7/7/3 8/8/3
f 9/9/4 10/10/4 6/6/4 5/5/4
f 6/6/2 11/11/2 7/7/2 3/3/2
f 8/8/5 7/7/5 12/12/5 13/13/5
f 11/11/6 6/6/6 10/10/6 16/14/6
f 11/11/2 17/15/2 12/12/2 7/7/2
f 13/13/7 12/12/7 18/16/7 19/17/7
f 20/18/8 17/15/8 15/19/8 14/20/8
f 17/15/9 11/11/9 16/14/9 15/19/9
f 17/15/2 20/18/2 18/16/2 12/12/2
f 1/1/10 9/9/10 5/5/10 2/2/10
f 19/17/11 18/16/11 20/18/11 14/20/11
